<svg id="Layer_1" data-name="Layer 1" xmlns="http://www.w3.org/2000/svg" viewBox="0 0 525.04 258.39"><defs><style>.cls-1,.cls-2{fill:#ffffff;}.cls-1{fill-rule:evenodd;}.cls-2{font-size:69.74px;font-family:HelveticaLT-Condensed-Bold, Helvetica LT Condensed;font-weight:700;}</style></defs><title>monarch-logo-as-svg</title><path class="cls-1" d="M78.42,401H151.5V305.62l2.88-1.14,55.14-21.67,6.16-2.42V325H240.8v51.47h20.08V240.93l6.72,3.77,45.17,25.38,2.31,1.29V317.3l36.42-12.24,5.94-2v44h16.48V242.9h45.79v57.52h35.54v38.06h41.66v25.28H530v39.67h59.62v9H521V372.8H496.91v31.08H468.28V363.76h19.6V347.51H455.25V372H409.46V338.48h36.76v-29H410.68V251.93H383V356.09H357.44V385.5H330V347.06h18.38V315.59L315.08,326.8v58.7H286.61V326.87l3.09-1,16.35-5.5V276.65l-36.14-20.3V385.5H231.77V334H215.68v33.09H187V325h19.61V293.63l-46.11,18.12V410H78.42v-9Zm128.23-42.89V334H196.07v24.06Zm99.4,18.38V329.83l-10.4,3.5v43.14Zm42.36,0V356.09h-9.35v20.38ZM446.22,363V347.51H418.49V363Zm41.66,31.86V372.8H477.31v22.05Z" transform="translate(-73.35 -240.93)"/><text class="cls-2" transform="translate(0 240.96)">MONARCH URBAN</text></svg>